<?xml version="1.0" encoding="UTF-8" standalone="no"?>
<svg
   xmlns:dc="http://purl.org/dc/elements/1.1/"
   xmlns:cc="http://creativecommons.org/ns#"
   xmlns:rdf="http://www.w3.org/1999/02/22-rdf-syntax-ns#"
   xmlns:svg="http://www.w3.org/2000/svg"
   xmlns="http://www.w3.org/2000/svg"
   xmlns:sodipodi="http://sodipodi.sourceforge.net/DTD/sodipodi-0.dtd"
   xmlns:inkscape="http://www.inkscape.org/namespaces/inkscape"
   viewBox="0 0 512 512"
   version="1.1"
   id="svg6"
   sodipodi:docname="animal-mirrored.svg"
   inkscape:version="1.0.2-2 (e86c870879, 2021-01-15)">
  <metadata
     id="metadata12">
    <rdf:RDF>
      <cc:Work
         rdf:about="">
        <dc:format>image/svg+xml</dc:format>
        <dc:type
           rdf:resource="http://purl.org/dc/dcmitype/StillImage" />
      </cc:Work>
    </rdf:RDF>
  </metadata>
  <defs
     id="defs10" />
  <sodipodi:namedview
     pagecolor="#ffffff"
     bordercolor="#666666"
     borderopacity="1"
     objecttolerance="10"
     gridtolerance="10"
     guidetolerance="10"
     inkscape:pageopacity="0"
     inkscape:pageshadow="2"
     inkscape:window-width="2400"
     inkscape:window-height="1261"
     id="namedview8"
     showgrid="false"
     inkscape:zoom="1.6015625"
     inkscape:cx="256"
     inkscape:cy="256"
     inkscape:window-x="-9"
     inkscape:window-y="-9"
     inkscape:window-maximized="1"
     inkscape:current-layer="svg6" />
  <!--!Font Awesome Pro 6.5.2 by @fontawesome - https://fontawesome.com License - https://fontawesome.com/license (Commercial License) Copyright 2024 Fonticons, Inc.-->
  <path
     class="fa-secondary"
     opacity="0.4"
     d="m 226.5,419.14616 c 14.3,-42.9 -0.3,-86.2 -32.6,-96.8 -32.3,-10.6 -70.1,15.6 -84.4,58.5 -14.3,42.9 0.3,86.2 32.6,96.8 32.3,10.6 70.1,-15.6 84.4,-58.5 z m -136.3,-189.8 c -24.5,-14 -59.7,0.9 -78.5,33.3 -18.8,32.4 -14.4,70.1 10.1,84.1 24.5,14 59.7,-0.9 78.5,-33.3 18.8,-32.4 14.3,-70.1 -10.2,-84.1 z m 331.7,0 c -24.5,14 -29.1,51.7 -10.2,84.1 18.9,32.4 54,47.3 78.5,33.3 24.5,-14 29.1,-51.7 10.2,-84.1 -18.9,-32.4 -54,-47.3 -78.5,-33.3 z m -111.8,93 c -32.3,10.6 -46.9,53.9 -32.6,96.8 14.3,42.9 52.1,69.1 84.4,58.5 32.3,-10.6 46.9,-53.9 32.6,-96.8 -14.3,-42.9 -52.1,-69.1 -84.4,-58.5 z"
     id="path2" />
  <path
     class="fa-primary"
     d="m 69.2,110.84616 c 52.4,141.3 145.5,177.2 186.8,177.2 41.3,0 134.4,-35.9 186.8,-177.2 3.6,-9.7 5.2,-20.100001 5.2,-30.500001 v -1.6 c 0,-25.8 -20.9,-46.7 -46.7,-46.7 -11.5,0 -22.9,1.4 -34,4.2 l -88,22 c -15.3,3.8 -31.3,3.8 -46.6,0 l -88,-22 c -11.1,-2.8 -22.5,-4.2 -34,-4.2 -25.8,0 -46.7,20.9 -46.7,46.7 v 1.6 c 0,10.4 1.6,20.800001 5.2,30.500001 z"
     id="path4" />
</svg>
