<?xml version="1.0" encoding="UTF-8" standalone="no"?>
<svg
   xmlns:dc="http://purl.org/dc/elements/1.1/"
   xmlns:cc="http://creativecommons.org/ns#"
   xmlns:rdf="http://www.w3.org/1999/02/22-rdf-syntax-ns#"
   xmlns:svg="http://www.w3.org/2000/svg"
   xmlns="http://www.w3.org/2000/svg"
   xmlns:sodipodi="http://sodipodi.sourceforge.net/DTD/sodipodi-0.dtd"
   xmlns:inkscape="http://www.inkscape.org/namespaces/inkscape"
   viewBox="0 0 640 512"
   version="1.1"
   id="svg6"
   sodipodi:docname="bicycle-mirrored.svg"
   inkscape:version="1.0.2-2 (e86c870879, 2021-01-15)">
  <metadata
     id="metadata12">
    <rdf:RDF>
      <cc:Work
         rdf:about="">
        <dc:format>image/svg+xml</dc:format>
        <dc:type
           rdf:resource="http://purl.org/dc/dcmitype/StillImage" />
      </cc:Work>
    </rdf:RDF>
  </metadata>
  <defs
     id="defs10" />
  <sodipodi:namedview
     pagecolor="#ffffff"
     bordercolor="#666666"
     borderopacity="1"
     objecttolerance="10"
     gridtolerance="10"
     guidetolerance="10"
     inkscape:pageopacity="0"
     inkscape:pageshadow="2"
     inkscape:window-width="2400"
     inkscape:window-height="1261"
     id="namedview8"
     showgrid="false"
     inkscape:zoom="1.6015625"
     inkscape:cx="320"
     inkscape:cy="256"
     inkscape:window-x="-9"
     inkscape:window-y="-9"
     inkscape:window-maximized="1"
     inkscape:current-layer="svg6" />
  <!--!Font Awesome Pro 6.5.2 by @fontawesome - https://fontawesome.com License - https://fontawesome.com/license (Commercial License) Copyright 2024 Fonticons, Inc.-->
  <path
     class="fa-secondary"
     opacity="0.4"
     d="M 431.1,259.2 C 402.4,235.7 384,200 384,160 384,89.3 441.3,32 512,32 c 70.7,0 128,57.3 128,128 0,70.7 -57.3,128 -128,128 -13.5,0 -26.5,-2.1 -38.7,-6 l 27.5,-50.9 c 3.6,0.6 7.4,0.9 11.2,0.9 39.8,0 72,-32.2 72,-72 0,-39.8 -32.2,-72 -72,-72 -39.8,0 -72,32.2 -72,72 0,18.6 7,35.5 18.6,48.3 z M 128,288 C 57.3,288 0,230.7 0,160 0,89.3 57.3,32 128,32 c 65.3,0 119.1,48.9 127,112 h -56.8 c -7.3,-32.1 -36,-56 -70.2,-56 -39.8,0 -72,32.2 -72,72 0,39.8 32.2,72 72,72 1.7,0 3.4,-0.1 5.1,-0.2 l 26.2,52.3 c -10,2.5 -20.5,3.8 -31.2,3.8 z"
     id="path2" />
  <path
     class="fa-primary"
     d="m 312,480 c -13.3,0 -24,-10.7 -24,-24 0,-13.3 10.7,-24 24,-24 h 25.7 l 34.6,-64 H 222.9 l -27.4,38 c -4.5,6.3 -11.8,10 -19.5,10 h -56 c -13.3,0 -24,-10.7 -24,-24 0,-13.3 10.7,-24 24,-24 h 43.7 l 22.1,-30.7 -77,-153.9 c -9,-18.1 4.1,-39.4 24.3,-39.4 H 304 c 8.5,0 16.3,4.5 20.7,11.8 l 84.8,143.5 81.4,-150.7 c 6.3,-11.7 20.9,-16 32.5,-9.7 11.6,6.3 16,20.9 9.7,32.5 L 375.4,463.2 C 369.8,473.6 359,480 347.2,480 Z M 166.8,192 217.5,293.3 290.4,192.1 290.3,192 Z m 90.6,128 H 365.9 L 317,237.2 Z"
     id="path4" />
</svg>
