<?xml version="1.0" encoding="UTF-8" standalone="no"?>
<svg
   xmlns:dc="http://purl.org/dc/elements/1.1/"
   xmlns:cc="http://creativecommons.org/ns#"
   xmlns:rdf="http://www.w3.org/1999/02/22-rdf-syntax-ns#"
   xmlns:svg="http://www.w3.org/2000/svg"
   xmlns="http://www.w3.org/2000/svg"
   xmlns:sodipodi="http://sodipodi.sourceforge.net/DTD/sodipodi-0.dtd"
   xmlns:inkscape="http://www.inkscape.org/namespaces/inkscape"
   viewBox="0 0 576 512"
   version="1.1"
   id="svg6"
   sodipodi:docname="boat-mirrored.svg"
   inkscape:version="1.0.2-2 (e86c870879, 2021-01-15)">
  <metadata
     id="metadata12">
    <rdf:RDF>
      <cc:Work
         rdf:about="">
        <dc:format>image/svg+xml</dc:format>
        <dc:type
           rdf:resource="http://purl.org/dc/dcmitype/StillImage" />
      </cc:Work>
    </rdf:RDF>
  </metadata>
  <defs
     id="defs10" />
  <sodipodi:namedview
     pagecolor="#ffffff"
     bordercolor="#666666"
     borderopacity="1"
     objecttolerance="10"
     gridtolerance="10"
     guidetolerance="10"
     inkscape:pageopacity="0"
     inkscape:pageshadow="2"
     inkscape:window-width="2400"
     inkscape:window-height="1261"
     id="namedview8"
     showgrid="false"
     inkscape:zoom="1.6015625"
     inkscape:cx="288"
     inkscape:cy="256"
     inkscape:window-x="-9"
     inkscape:window-y="-9"
     inkscape:window-maximized="1"
     inkscape:current-layer="svg6" />
  <!--!Font Awesome Pro 6.5.2 by @fontawesome - https://fontawesome.com License - https://fontawesome.com/license (Commercial License) Copyright 2024 Fonticons, Inc.-->
  <path
     class="fa-secondary"
     opacity="0.4"
     d="m 256,495.96339 c 0,7 4.5,13.2 11.2,15.3 6.7,2.1 13.9,-0.4 17.9,-6.1 l 224,-320 c 3.4,-4.9 3.8,-11.3 1.1,-16.6 -2.7,-5.3 -8.2,-8.6 -14.2,-8.6 H 272 c -8.8,0 -16,7.2 -16,16 z m -32,-96 v -224 c 0,-8.8 -7.2,-16 -16,-16 H 80 c -5.7,0 -11,3 -13.8,8 -2.8,5 -2.9,11 -0.1,16 l 128,224 c 3.6,6.3 11,9.4 18,7.5 7,-1.9 11.9,-8.2 11.9,-15.5 z"
     id="path2" />
  <path
     class="fa-primary"
     d="m 5.7,107.66339 c -2.9,10.2 4.8,20.3 15.4,20.3 h 533.8 c 10.6,0 18.3,-10.1 15.4,-20.3 l -4,-14.299995 C 550.7,38.063395 500.4,-0.03660522 443,-0.03660522 H 133 c -57.4,0 -107.7,38.10000022 -123.3,93.30000022 l -4,14.299995 z"
     id="path4" />
</svg>
