<?xml version="1.0" encoding="UTF-8" standalone="no"?>
<svg
   xmlns:dc="http://purl.org/dc/elements/1.1/"
   xmlns:cc="http://creativecommons.org/ns#"
   xmlns:rdf="http://www.w3.org/1999/02/22-rdf-syntax-ns#"
   xmlns:svg="http://www.w3.org/2000/svg"
   xmlns="http://www.w3.org/2000/svg"
   xmlns:sodipodi="http://sodipodi.sourceforge.net/DTD/sodipodi-0.dtd"
   xmlns:inkscape="http://www.inkscape.org/namespaces/inkscape"
   viewBox="0 0 640 512"
   version="1.1"
   id="svg6"
   sodipodi:docname="camper-mirrored.svg"
   inkscape:version="1.0.2-2 (e86c870879, 2021-01-15)">
  <metadata
     id="metadata12">
    <rdf:RDF>
      <cc:Work
         rdf:about="">
        <dc:format>image/svg+xml</dc:format>
        <dc:type
           rdf:resource="http://purl.org/dc/dcmitype/StillImage" />
      </cc:Work>
    </rdf:RDF>
  </metadata>
  <defs
     id="defs10" />
  <sodipodi:namedview
     pagecolor="#ffffff"
     bordercolor="#666666"
     borderopacity="1"
     objecttolerance="10"
     gridtolerance="10"
     guidetolerance="10"
     inkscape:pageopacity="0"
     inkscape:pageshadow="2"
     inkscape:window-width="2400"
     inkscape:window-height="1261"
     id="namedview8"
     showgrid="false"
     inkscape:zoom="1.6015625"
     inkscape:cx="320"
     inkscape:cy="256"
     inkscape:window-x="-9"
     inkscape:window-y="-9"
     inkscape:window-maximized="1"
     inkscape:current-layer="svg6" />
  <!--!Font Awesome Pro 6.5.2 by @fontawesome - https://fontawesome.com License - https://fontawesome.com/license (Commercial License) Copyright 2024 Fonticons, Inc.-->
  <path
     class="fa-secondary"
     opacity="0.4"
     d="m 176,0 a 64,-64 0 1 1 0,128 64,-64 0 1 1 0,-128 z m 320,0 a 64,-64 0 1 1 0,128 64,-64 0 1 1 0,-128 z"
     id="path2" />
  <path
     class="fa-primary"
     d="m 224,496 c 0,8.8 7.2,16 16,16 h 128 c 8.8,0 16,-7.2 16,-16 v -16 h 128 c 53,0 96,-43 96,-96 0,-17.7 -14.3,-32 -32,-32 H 384 V 96 H 266.5 c -13.2,37.3 -48.7,64 -90.5,64 -38.9,0 -72.5,-23.2 -87.5,-56.5 L 18.7,173.3 C 6.7,185.3 0,201.5 0,218.5 V 416 c 0,35.3 28.7,64 64,64 H 224 Z M 96,368 v -64 c 0,-8.8 7.2,-16 16,-16 h 128 c 8.8,0 16,7.2 16,16 v 64 c 0,8.8 -7.2,16 -16,16 H 112 c -8.8,0 -16,-7.2 -16,-16 z M 416,192 v 32 72 24 h 24 76.6 c 12.9,0 25.5,-4.5 35.5,-12.7 l 67.4,-55.2 c 13,-10.6 20.5,-26.5 20.5,-43.3 V 192 128 c 0,-17.7 -14.3,-32 -32,-32 h -21.5 c -13.2,37.3 -48.7,64 -90.5,64 -33.4,0 -62.8,-17 -80,-42.9 z m 162.1,32 -56.5,46.2 c -1.4,1.2 -3.2,1.8 -5.1,1.8 H 464 v -48 z"
     id="path4" />
</svg>
