<?xml version="1.0" encoding="UTF-8" standalone="no"?>
<svg
   xmlns:dc="http://purl.org/dc/elements/1.1/"
   xmlns:cc="http://creativecommons.org/ns#"
   xmlns:rdf="http://www.w3.org/1999/02/22-rdf-syntax-ns#"
   xmlns:svg="http://www.w3.org/2000/svg"
   xmlns="http://www.w3.org/2000/svg"
   xmlns:sodipodi="http://sodipodi.sourceforge.net/DTD/sodipodi-0.dtd"
   xmlns:inkscape="http://www.inkscape.org/namespaces/inkscape"
   viewBox="0 0 640 512"
   version="1.1"
   id="svg6"
   sodipodi:docname="car-mirrored.svg"
   inkscape:version="1.0.2-2 (e86c870879, 2021-01-15)">
  <metadata
     id="metadata12">
    <rdf:RDF>
      <cc:Work
         rdf:about="">
        <dc:format>image/svg+xml</dc:format>
        <dc:type
           rdf:resource="http://purl.org/dc/dcmitype/StillImage" />
      </cc:Work>
    </rdf:RDF>
  </metadata>
  <defs
     id="defs10" />
  <sodipodi:namedview
     pagecolor="#ffffff"
     bordercolor="#666666"
     borderopacity="1"
     objecttolerance="10"
     gridtolerance="10"
     guidetolerance="10"
     inkscape:pageopacity="0"
     inkscape:pageshadow="2"
     inkscape:window-width="2400"
     inkscape:window-height="1261"
     id="namedview8"
     showgrid="false"
     inkscape:zoom="1.6015625"
     inkscape:cx="320"
     inkscape:cy="256"
     inkscape:window-x="-9"
     inkscape:window-y="-9"
     inkscape:window-maximized="1"
     inkscape:current-layer="svg6" />
  <!--!Font Awesome Pro 6.5.2 by @fontawesome - https://fontawesome.com License - https://fontawesome.com/license (Commercial License) Copyright 2024 Fonticons, Inc.-->
  <path
     class="fa-secondary"
     opacity="0.4"
     d="M 171.3,448 H 224 V 352 H 111.3 l 30.4,75.9 c 4.9,12.1 16.6,20.1 29.7,20.1 z M 272,352 v 96 h 81.2 c 9.7,0 18.9,-4.4 25,-12 l 67.2,-84 z M 64,144 a 80,-80 0 1 0 160,0 80,-80 0 1 0 -160,0 z m 432,80 a 80,-80 0 1 0 0,-160 80,-80 0 1 0 0,160 z"
     id="path2" />
  <path
     class="fa-primary"
     d="M 171.3,448 H 224 V 352 H 111.3 l 30.4,75.9 c 4.9,12.1 16.6,20.1 29.7,20.1 z M 272,352 v 96 h 81.2 c 9.7,0 18.9,-4.4 25,-12 l 67.2,-84 z m 256.2,-1 -100,125 c -18.2,22.8 -45.8,36 -75,36 H 171.3 C 132,512 96.7,488.1 82.2,451.7 L 40.6,347.6 C 16.8,338.2 0,315.1 0,288 V 176 c 0,-17.7 14.3,-32 32,-32 0,61.9 50.1,112 112,112 61.9,0 112,-50.1 112,-112 h 128 c 0,61.9 50.1,112 112,112 61.9,0 112,-50.1 112,-112 17.7,0 32,14.3 32,32 v 48 c 0,65.2 -48.8,119 -111.8,127 z"
     id="path4" />
</svg>
