<?xml version="1.0" encoding="UTF-8" standalone="no"?>
<svg
   xmlns:dc="http://purl.org/dc/elements/1.1/"
   xmlns:cc="http://creativecommons.org/ns#"
   xmlns:rdf="http://www.w3.org/1999/02/22-rdf-syntax-ns#"
   xmlns:svg="http://www.w3.org/2000/svg"
   xmlns="http://www.w3.org/2000/svg"
   xmlns:sodipodi="http://sodipodi.sourceforge.net/DTD/sodipodi-0.dtd"
   xmlns:inkscape="http://www.inkscape.org/namespaces/inkscape"
   viewBox="0 0 640 512"
   version="1.1"
   id="svg6"
   sodipodi:docname="crane-mirrored.svg"
   inkscape:version="1.0.2-2 (e86c870879, 2021-01-15)">
  <metadata
     id="metadata12">
    <rdf:RDF>
      <cc:Work
         rdf:about="">
        <dc:format>image/svg+xml</dc:format>
        <dc:type
           rdf:resource="http://purl.org/dc/dcmitype/StillImage" />
      </cc:Work>
    </rdf:RDF>
  </metadata>
  <defs
     id="defs10" />
  <sodipodi:namedview
     pagecolor="#ffffff"
     bordercolor="#666666"
     borderopacity="1"
     objecttolerance="10"
     gridtolerance="10"
     guidetolerance="10"
     inkscape:pageopacity="0"
     inkscape:pageshadow="2"
     inkscape:window-width="2400"
     inkscape:window-height="1261"
     id="namedview8"
     showgrid="false"
     inkscape:zoom="1.6015625"
     inkscape:cx="320"
     inkscape:cy="256"
     inkscape:window-x="-9"
     inkscape:window-y="-9"
     inkscape:window-maximized="1"
     inkscape:current-layer="svg6" />
  <!--!Font Awesome Pro 6.5.2 by @fontawesome - https://fontawesome.com License - https://fontawesome.com/license (Commercial License) Copyright 2024 Fonticons, Inc.-->
  <path
     class="fa-secondary"
     opacity="0.4"
     d="m 96,512 h 49.5 c 9.2,0 18,-4 24.1,-10.9 L 384,256 H 192 L 96,448 V 336 C 96,309.5 74.5,288 48,288 21.5,288 0,309.5 0,336 v 16 c 0,8.8 7.2,16 16,16 8.8,0 16,-7.2 16,-16 v -16 c 0,-8.8 7.2,-16 16,-16 8.8,0 16,7.2 16,16 v 144 c 0,17.7 14.3,32 32,32 z M 96,80 a 80,-80 0 1 0 160,0 80,-80 0 1 0 -160,0 z m 400,80 a 80,-80 0 1 0 0,-160 80,-80 0 1 0 0,160 z"
     id="path2" />
  <path
     class="fa-primary"
     d="m 416,416 c -17.7,0 -32,-14.3 -32,-32 V 256 H 48 C 21.5,256 0,234.5 0,208 V 144 C 0,117.5 21.5,96 48,96 h 17.1 c 7.8,54.3 54.4,96 110.9,96 56.5,0 103.1,-41.7 110.9,-96 h 97.1 1.1 c 7.8,54.3 54.4,96 110.9,96 56.2,0 102.8,-41.4 110.8,-95.4 18.9,3.2 33.2,19.6 33.2,39.4 v 88 32 18.7 c 0,17 -6.7,33.3 -18.7,45.3 L 544,397.3 c -12,12 -28.3,18.7 -45.3,18.7 z M 576,256 H 448 v 96 h 50.7 L 576,274.7 Z"
     id="path4" />
</svg>
