<?xml version="1.0" encoding="UTF-8" standalone="no"?>
<svg
   xmlns:dc="http://purl.org/dc/elements/1.1/"
   xmlns:cc="http://creativecommons.org/ns#"
   xmlns:rdf="http://www.w3.org/1999/02/22-rdf-syntax-ns#"
   xmlns:svg="http://www.w3.org/2000/svg"
   xmlns="http://www.w3.org/2000/svg"
   xmlns:sodipodi="http://sodipodi.sourceforge.net/DTD/sodipodi-0.dtd"
   xmlns:inkscape="http://www.inkscape.org/namespaces/inkscape"
   viewBox="0 0 640 512"
   version="1.1"
   id="svg6"
   sodipodi:docname="helicopter-mirrored.svg"
   inkscape:version="1.0.2-2 (e86c870879, 2021-01-15)">
  <metadata
     id="metadata12">
    <rdf:RDF>
      <cc:Work
         rdf:about="">
        <dc:format>image/svg+xml</dc:format>
        <dc:type
           rdf:resource="http://purl.org/dc/dcmitype/StillImage" />
      </cc:Work>
    </rdf:RDF>
  </metadata>
  <defs
     id="defs10" />
  <sodipodi:namedview
     pagecolor="#ffffff"
     bordercolor="#666666"
     borderopacity="1"
     objecttolerance="10"
     gridtolerance="10"
     guidetolerance="10"
     inkscape:pageopacity="0"
     inkscape:pageshadow="2"
     inkscape:window-width="2400"
     inkscape:window-height="1261"
     id="namedview8"
     showgrid="false"
     inkscape:zoom="1.6015625"
     inkscape:cx="320"
     inkscape:cy="256"
     inkscape:window-x="-9"
     inkscape:window-y="-9"
     inkscape:window-maximized="1"
     inkscape:current-layer="svg6" />
  <!--!Font Awesome Pro 6.5.2 by @fontawesome - https://fontawesome.com License - https://fontawesome.com/license (Commercial License) Copyright 2024 Fonticons, Inc.-->
  <path
     class="fa-secondary"
     opacity="0.4"
     d="m 128,480.1 c 0,17.7 14.3,32 32,32 h 384 c 17.7,0 32,-14.3 32,-32 0,-17.7 -14.3,-32 -32,-32 H 384 v -64 h -64 v 64 H 160 c -17.7,0 -32,14.3 -32,32 z M 630.6,86.7 c 12.5,-12.5 12.5,-32.8 0,-45.3 l -3.9,-3.9 C 602.7,13.5 570.1,0 536.2,0 H 256 c -17.7,0 -32,14.3 -32,32 0,17.7 14.3,32 32,32 h 280.2 c 17,0 33.3,6.7 45.3,18.7 l 3.9,3.9 c 12.5,12.5 32.8,12.5 45.3,0 z"
     id="path2" />
  <path
     class="fa-primary"
     d="m 384,128.1 h -64 c -20.1,0 -39.1,9.5 -51.2,25.6 l -71.4,95.2 c -3.5,4.7 -8.3,8.3 -13.7,10.5 L 47.2,314 C 37.7,317.8 30.5,326 28,336 L 5,428.2 c -2.6,10.1 5.1,19.9 15.5,19.9 H 48 c 10.1,0 19.6,-4.7 25.6,-12.8 L 112,384.1 h 272 32 c 88.4,0 160,-71.6 160,-160 v -64 c 0,-17.7 -14.3,-32 -32,-32 z m 0,64 h 128 v 32 c 0,53 -43,96 -96,96 h -32 z"
     id="path4" />
</svg>
