<?xml version="1.0" encoding="UTF-8" standalone="no"?>
<svg
   xmlns:dc="http://purl.org/dc/elements/1.1/"
   xmlns:cc="http://creativecommons.org/ns#"
   xmlns:rdf="http://www.w3.org/1999/02/22-rdf-syntax-ns#"
   xmlns:svg="http://www.w3.org/2000/svg"
   xmlns="http://www.w3.org/2000/svg"
   xmlns:sodipodi="http://sodipodi.sourceforge.net/DTD/sodipodi-0.dtd"
   xmlns:inkscape="http://www.inkscape.org/namespaces/inkscape"
   viewBox="0 0 640 512"
   version="1.1"
   id="svg6"
   sodipodi:docname="motorcycle-mirrored.svg"
   inkscape:version="1.0.2-2 (e86c870879, 2021-01-15)">
  <metadata
     id="metadata12">
    <rdf:RDF>
      <cc:Work
         rdf:about="">
        <dc:format>image/svg+xml</dc:format>
        <dc:type
           rdf:resource="http://purl.org/dc/dcmitype/StillImage" />
      </cc:Work>
    </rdf:RDF>
  </metadata>
  <defs
     id="defs10" />
  <sodipodi:namedview
     pagecolor="#ffffff"
     bordercolor="#666666"
     borderopacity="1"
     objecttolerance="10"
     gridtolerance="10"
     guidetolerance="10"
     inkscape:pageopacity="0"
     inkscape:pageshadow="2"
     inkscape:window-width="2400"
     inkscape:window-height="1261"
     id="namedview8"
     showgrid="false"
     inkscape:zoom="1.6015625"
     inkscape:cx="320"
     inkscape:cy="256"
     inkscape:window-x="-9"
     inkscape:window-y="-9"
     inkscape:window-maximized="1"
     inkscape:current-layer="svg6" />
  <!--!Font Awesome Pro 6.5.2 by @fontawesome - https://fontawesome.com License - https://fontawesome.com/license (Commercial License) Copyright 2024 Fonticons, Inc.-->
  <path
     class="fa-secondary"
     opacity="0.4"
     d="m 128,95.9 c 26.9,0 49.9,16.5 59.3,40 h 66.4 C 242.5,76.7 190.5,31.9 128,31.9 57.3,31.9 0,89.2 0,159.9 c 0,70.7 57.3,128 128,128 62.5,0 114.5,-44.8 125.8,-104 h -66.5 c -9.5,23.5 -32.5,40 -59.3,40 -35.3,0 -64,-28.7 -64,-64 0,-35.3 28.7,-64 64,-64 z m 256,64 c 0,40 18.4,75.7 47.1,99.2 l 31.6,-58.4 C 453.5,189.6 448,175.4 448,159.9 c 0,-35.3 28.7,-64 64,-64 35.3,0 64,28.7 64,64 0,35.3 -28.7,64 -64,64 -2.4,0 -4.8,-0.1 -7.1,-0.4 l -31.6,58.4 c 12.2,3.9 25.2,6 38.7,6 70.7,0 128,-57.3 128,-128 0,-70.7 -57.3,-128 -128,-128 -70.7,0 -128,57.3 -128,128 z"
     id="path2" />
  <path
     class="fa-primary"
     d="m 280,479.9 c -13.3,0 -24,-10.7 -24,-24 0,-13.3 10.7,-24 24,-24 h 57.7 l 16.4,-30.3 -98.1,-81.7 -45.3,45.3 c -12,12 -28.3,18.7 -45.3,18.7 H 64 c -17.7,0 -32,-14.3 -32,-32 v -32 h 96 c 88.4,0 160,-71.6 160,-160 0,-11 -1.1,-21.7 -3.2,-32 h 70.4 c -2.1,10.3 -3.2,21 -3.2,32 0,52.2 25,98.6 63.7,127.8 l 75.2,-139.2 c 6.3,-11.7 20.9,-16 32.5,-9.7 11.6,6.3 16,20.9 9.7,32.5 L 418.2,383.9 H 480 c 17.7,0 32,14.3 32,32 v 32 c 0,17.7 -14.3,32 -32,32 h -20.4 c -7.5,0 -14.7,-2.6 -20.5,-7.4 l -47.4,-39.5 -14,26 c -7,12.9 -20.5,21 -35.2,21 H 280 Z m -152,-352 a 32,-32 0 1 1 0,64 32,-32 0 1 1 0,-64 z"
     id="path4" />
</svg>
