<?xml version="1.0" encoding="UTF-8" standalone="no"?>
<svg
   xmlns:dc="http://purl.org/dc/elements/1.1/"
   xmlns:cc="http://creativecommons.org/ns#"
   xmlns:rdf="http://www.w3.org/1999/02/22-rdf-syntax-ns#"
   xmlns:svg="http://www.w3.org/2000/svg"
   xmlns="http://www.w3.org/2000/svg"
   xmlns:sodipodi="http://sodipodi.sourceforge.net/DTD/sodipodi-0.dtd"
   xmlns:inkscape="http://www.inkscape.org/namespaces/inkscape"
   viewBox="0 0 640 512"
   version="1.1"
   id="svg6"
   sodipodi:docname="offroad-mirrored.svg"
   inkscape:version="1.0.2-2 (e86c870879, 2021-01-15)">
  <metadata
     id="metadata12">
    <rdf:RDF>
      <cc:Work
         rdf:about="">
        <dc:format>image/svg+xml</dc:format>
        <dc:type
           rdf:resource="http://purl.org/dc/dcmitype/StillImage" />
      </cc:Work>
    </rdf:RDF>
  </metadata>
  <defs
     id="defs10" />
  <sodipodi:namedview
     pagecolor="#ffffff"
     bordercolor="#666666"
     borderopacity="1"
     objecttolerance="10"
     gridtolerance="10"
     guidetolerance="10"
     inkscape:pageopacity="0"
     inkscape:pageshadow="2"
     inkscape:window-width="2400"
     inkscape:window-height="1261"
     id="namedview8"
     showgrid="false"
     inkscape:zoom="1.6015625"
     inkscape:cx="320"
     inkscape:cy="256"
     inkscape:window-x="-9"
     inkscape:window-y="-9"
     inkscape:window-maximized="1"
     inkscape:current-layer="svg6" />
  <!--!Font Awesome Pro 6.5.2 by @fontawesome - https://fontawesome.com License - https://fontawesome.com/license (Commercial License) Copyright 2024 Fonticons, Inc.-->
  <path
     class="fa-secondary"
     opacity="0.4"
     d="m 130.3,236 c 4.8,11.7 16.2,20 29.7,20 13.5,0 24.9,-8.3 29.7,-20 9.1,-2.5 17.7,-6.1 25.7,-10.7 11.6,4.9 25.6,2.6 35.1,-6.8 9.5,-9.4 11.8,-23.5 6.8,-35.1 4.6,-8 8.2,-16.6 10.7,-25.7 11.7,-4.8 20,-16.2 20,-29.7 0,-13.5 -8.3,-24.9 -20,-29.7 C 265.5,89.2 261.9,80.6 257.3,72.6 262.2,61 259.9,47 250.5,37.5 241.1,28 227,25.7 215.4,30.7 207.4,26.1 198.8,22.5 189.7,20 184.9,8.3 173.5,0 160,0 146.5,0 135.1,8.3 130.3,20 121.2,22.5 112.6,26.1 104.6,30.7 93,25.7 79,28 69.5,37.5 60,47 57.7,61 62.6,72.6 c -4.6,8 -8.2,16.6 -10.7,25.7 -11.7,4.8 -20,16.2 -20,29.7 0,13.5 8.3,24.9 20,29.7 2.5,9.1 6.1,17.7 10.7,25.7 -4.9,11.6 -2.6,25.6 6.9,35.1 9.5,9.5 23.5,11.8 35.1,6.8 8,4.6 16.6,8.2 25.7,10.7 z M 208,128 a 48,-48 0 1 1 -96,0 48,-48 0 1 1 96,0 z m 242.3,108 c 4.8,11.7 16.2,20 29.7,20 13.5,0 24.9,-8.3 29.7,-20 9.1,-2.5 17.7,-6.1 25.7,-10.7 11.6,4.9 25.6,2.6 35.1,-6.8 9.5,-9.4 11.8,-23.5 6.9,-35.1 4.6,-8 8.2,-16.6 10.7,-25.7 11.7,-4.8 20,-16.2 20,-29.7 0,-13.5 -8.3,-24.9 -20,-29.7 C 585.6,89.2 582,80.6 577.4,72.6 582.3,61 580,47 570.5,37.5 561,28 547,25.7 535.4,30.7 527.4,26.1 518.8,22.5 509.7,20 504.9,8.3 493.5,0 480,0 c -13.5,0 -24.9,8.3 -29.7,20 -9.1,2.5 -17.7,6.1 -25.7,10.7 -11.6,-4.9 -25.6,-2.6 -35.1,6.9 -9.5,9.5 -11.8,23.5 -6.8,35.1 -4.6,8 -8.2,16.6 -10.7,25.7 -11.7,4.8 -20,16.2 -20,29.7 0,13.5 8.3,24.9 20,29.7 2.5,9.1 6.1,17.7 10.7,25.7 -4.9,11.6 -2.6,25.6 6.8,35.1 9.4,9.5 23.5,11.8 35.1,6.8 8,4.6 16.6,8.2 25.7,10.7 z M 528,128 a 48,-48 0 1 1 -96,0 48,-48 0 1 1 96,0 z"
     id="path2" />
  <path
     class="fa-primary"
     d="m 288,448 v -64 h 128 l -48,64 z M 419.2,486.4 496,384 h 80 c 17.7,0 32,-14.3 32,-32 v -64 c 17.7,0 32,-14.3 32,-32 0,-17.7 -14.3,-32 -32,-32 -29.2,38.9 -75.7,64 -128,64 -52.3,0 -98.8,-25.1 -128,-64 h -64 c -29.2,38.9 -75.7,64 -128,64 -52.3,0 -98.8,-25.1 -128,-64 -17.7,0 -32,14.3 -32,32 0,17.7 14.3,32 32,32 v 64 c 0,17.7 14.3,32 32,32 h 160 v 80 c 0,26.5 21.5,48 48,48 h 96 c 20.1,0 39.1,-9.5 51.2,-25.6 z"
     id="path4" />
</svg>
