<?xml version="1.0" encoding="UTF-8" standalone="no"?>
<svg
   xmlns:dc="http://purl.org/dc/elements/1.1/"
   xmlns:cc="http://creativecommons.org/ns#"
   xmlns:rdf="http://www.w3.org/1999/02/22-rdf-syntax-ns#"
   xmlns:svg="http://www.w3.org/2000/svg"
   xmlns="http://www.w3.org/2000/svg"
   xmlns:sodipodi="http://sodipodi.sourceforge.net/DTD/sodipodi-0.dtd"
   xmlns:inkscape="http://www.inkscape.org/namespaces/inkscape"
   viewBox="0 0 512 512"
   version="1.1"
   id="svg6"
   sodipodi:docname="person-mirrored.svg"
   inkscape:version="1.0.2-2 (e86c870879, 2021-01-15)">
  <metadata
     id="metadata12">
    <rdf:RDF>
      <cc:Work
         rdf:about="">
        <dc:format>image/svg+xml</dc:format>
        <dc:type
           rdf:resource="http://purl.org/dc/dcmitype/StillImage" />
      </cc:Work>
    </rdf:RDF>
  </metadata>
  <defs
     id="defs10" />
  <sodipodi:namedview
     pagecolor="#ffffff"
     bordercolor="#666666"
     borderopacity="1"
     objecttolerance="10"
     gridtolerance="10"
     guidetolerance="10"
     inkscape:pageopacity="0"
     inkscape:pageshadow="2"
     inkscape:window-width="2400"
     inkscape:window-height="1261"
     id="namedview8"
     showgrid="false"
     inkscape:zoom="1.6015625"
     inkscape:cx="256"
     inkscape:cy="256"
     inkscape:window-x="-9"
     inkscape:window-y="-9"
     inkscape:window-maximized="1"
     inkscape:current-layer="svg6" />
  <!--!Font Awesome Pro 6.5.2 by @fontawesome - https://fontawesome.com License - https://fontawesome.com/license (Commercial License) Copyright 2024 Fonticons, Inc.-->
  <path
     class="fa-secondary"
     opacity="0.4"
     d="m 197.5,174.2 c -41.1,-2.6 -79,-8 -109.9,-16 C 65.2,152.4 45,144.9 29.8,135 15.1,125.4 0,110.1 0,88 0,65.9 15.1,50.6 29.8,41 45,31.1 65.3,23.5 87.6,17.7 132.7,6.1 192.9,0 256,0 c 63.1,0 123.3,6.1 168.4,17.8 22.4,5.8 42.6,13.3 57.8,23.3 14.7,9.6 29.8,24.9 29.8,47 0,22.1 -15.1,37.4 -29.8,47 -15.2,9.9 -35.5,17.5 -57.8,23.3 -30.9,8 -68.8,13.4 -109.9,16 l -5.3,-47.8 c 39.6,-2.4 75.3,-7.5 103.2,-14.7 C 469,97.3 469,79 412.4,64.4 372.5,53.9 316.6,48 256,48 195.4,48 139.5,53.9 99.6,64.2 43,78.8 43,97.1 99.6,111.7 c 27.9,7.2 63.6,12.3 103.2,14.7 z"
     id="path2" />
  <path
     class="fa-primary"
     d="m 256,512 a 64,-64 0 1 0 0,-128 64,-64 0 1 0 0,128 z M 160,288 c 0,35.3 28.7,64 64,64 h 64 c 35.3,0 64,-28.7 64,-64 v -48 c 0,-17.7 -14.3,-32 -32,-32 h -1.8 L 307.1,108.5 C 305.3,92.3 291.6,80 275.3,80 h -38.7 c -16.3,0 -30,12.3 -31.8,28.5 l -11,99.5 H 192 c -17.7,0 -32,14.3 -32,32 z"
     id="path4" />
</svg>
