<?xml version="1.0" encoding="UTF-8" standalone="no"?>
<svg
   xmlns:dc="http://purl.org/dc/elements/1.1/"
   xmlns:cc="http://creativecommons.org/ns#"
   xmlns:rdf="http://www.w3.org/1999/02/22-rdf-syntax-ns#"
   xmlns:svg="http://www.w3.org/2000/svg"
   xmlns="http://www.w3.org/2000/svg"
   xmlns:sodipodi="http://sodipodi.sourceforge.net/DTD/sodipodi-0.dtd"
   xmlns:inkscape="http://www.inkscape.org/namespaces/inkscape"
   viewBox="0 0 640 512"
   version="1.1"
   id="svg6"
   sodipodi:docname="pickup-mirrored.svg"
   inkscape:version="1.0.2-2 (e86c870879, 2021-01-15)">
  <metadata
     id="metadata12">
    <rdf:RDF>
      <cc:Work
         rdf:about="">
        <dc:format>image/svg+xml</dc:format>
        <dc:type
           rdf:resource="http://purl.org/dc/dcmitype/StillImage" />
      </cc:Work>
    </rdf:RDF>
  </metadata>
  <defs
     id="defs10" />
  <sodipodi:namedview
     pagecolor="#ffffff"
     bordercolor="#666666"
     borderopacity="1"
     objecttolerance="10"
     gridtolerance="10"
     guidetolerance="10"
     inkscape:pageopacity="0"
     inkscape:pageshadow="2"
     inkscape:window-width="2400"
     inkscape:window-height="1261"
     id="namedview8"
     showgrid="false"
     inkscape:zoom="1.6015625"
     inkscape:cx="320"
     inkscape:cy="256"
     inkscape:window-x="-9"
     inkscape:window-y="-9"
     inkscape:window-maximized="1"
     inkscape:current-layer="svg6" />
  <!--!Font Awesome Pro 6.5.2 by @fontawesome - https://fontawesome.com License - https://fontawesome.com/license (Commercial License) Copyright 2024 Fonticons, Inc.-->
  <path
     class="fa-secondary"
     opacity="0.4"
     d="m 160,32 a 80,-80 0 1 1 0,160 80,-80 0 1 1 0,-160 z m 320,0 a 80,-80 0 1 1 0,160 80,-80 0 1 1 0,-160 z"
     id="path2" />
  <path
     class="fa-primary"
     d="m 288,416 v -96 h 157.4 l -76.8,96 z M 418.6,456 527.4,320 H 576 c 17.7,0 32,-14.3 32,-32 v -64 c 17.7,0 32,-14.3 32,-32 0,-17.7 -14.3,-32 -32,-32 h -26.8 c -18,37.8 -56.5,64 -101.2,64 -44.7,0 -83.2,-26.2 -101.2,-64 H 261.2 c -18,37.8 -56.5,64 -101.2,64 -44.7,0 -83.2,-26.2 -101.2,-64 H 32 c -17.7,0 -32,14.3 -32,32 0,17.7 14.3,32 32,32 v 64 c 0,17.7 14.3,32 32,32 h 160 v 112 c 0,26.5 21.5,48 48,48 h 96.6 c 19.4,0 37.8,-8.8 50,-24 z"
     id="path4" />
</svg>
