<?xml version="1.0" encoding="UTF-8" standalone="no"?>
<svg
   xmlns:dc="http://purl.org/dc/elements/1.1/"
   xmlns:cc="http://creativecommons.org/ns#"
   xmlns:rdf="http://www.w3.org/1999/02/22-rdf-syntax-ns#"
   xmlns:svg="http://www.w3.org/2000/svg"
   xmlns="http://www.w3.org/2000/svg"
   xmlns:sodipodi="http://sodipodi.sourceforge.net/DTD/sodipodi-0.dtd"
   xmlns:inkscape="http://www.inkscape.org/namespaces/inkscape"
   viewBox="0 0 640 512"
   version="1.1"
   id="svg6"
   sodipodi:docname="scooter-mirrored.svg"
   inkscape:version="1.0.2-2 (e86c870879, 2021-01-15)">
  <metadata
     id="metadata12">
    <rdf:RDF>
      <cc:Work
         rdf:about="">
        <dc:format>image/svg+xml</dc:format>
        <dc:type
           rdf:resource="http://purl.org/dc/dcmitype/StillImage" />
      </cc:Work>
    </rdf:RDF>
  </metadata>
  <defs
     id="defs10" />
  <sodipodi:namedview
     pagecolor="#ffffff"
     bordercolor="#666666"
     borderopacity="1"
     objecttolerance="10"
     gridtolerance="10"
     guidetolerance="10"
     inkscape:pageopacity="0"
     inkscape:pageshadow="2"
     inkscape:window-width="2400"
     inkscape:window-height="1261"
     id="namedview8"
     showgrid="false"
     inkscape:zoom="1.6015625"
     inkscape:cx="320"
     inkscape:cy="256"
     inkscape:window-x="-9"
     inkscape:window-y="-9"
     inkscape:window-maximized="1"
     inkscape:current-layer="svg6" />
  <!--!Font Awesome Pro 6.5.2 by @fontawesome - https://fontawesome.com License - https://fontawesome.com/license (Commercial License) Copyright 2024 Fonticons, Inc.-->
  <path
     class="fa-secondary"
     opacity="0.4"
     d="m 128,416 c -17.7,0 -32,-14.3 -32,-32 0,-17.7 14.3,-32 32,-32 h 96 c 17.7,0 32,14.3 32,32 0,17.7 -14.3,32 -32,32 z M 512,176 a 48,-48 0 1 0 0,-96 48,-48 0 1 0 0,96 z m 0,-144 a 96,-96 0 1 1 0,192 96,-96 0 1 1 0,-192 z M 64,128 c 0,-53 43,-96 96,-96 53,0 96,43 96,96 h -48 c 0,-26.5 -21.5,-48 -48,-48 -26.5,0 -48,21.5 -48,48 z"
     id="path2" />
  <path
     class="fa-primary"
     d="m 328,456 c 0,13.3 10.7,24 24,24 h 41.3 c 23.8,0 45.1,-15.1 52.9,-37.6 l 8.1,-23.3 51,25.5 c 4.4,2.2 9.3,3.4 14.3,3.4 h 8.4 c 8.8,0 16,-7.2 16,-16 v -64 c 0,-8.8 -7.2,-16 -16,-16 h -8.4 c -5,0 -9.9,1.2 -14.3,3.4 l -34.9,17.5 29.6,-85.3 c 4,0.3 8,0.4 12,0.4 43.7,0 83.3,-17.5 112.1,-45.8 9.5,-9.3 9.6,-24.5 0.3,-33.9 -9.3,-9.4 -24.5,-9.6 -33.9,-0.3 -20.3,19.8 -47.9,32 -78.5,32 -55.1,0 -101,-39.8 -110.3,-92.3 -2,-11.5 -12,-19.8 -23.6,-19.8 H 336 c -0.9,0 -1.7,0 -2.6,0.1 H 32 C 14.3,128 0,142.3 0,160 v 32 c 0,70.7 57.3,128 128,128 h 96 c 17.7,0 32,-14.3 32,-32 v -64 c 0,-17.7 14.3,-32 32,-32 h 77.3 c 16.8,38.5 48.4,69.2 87.6,84.7 l -52.1,149.9 c -1.1,3.2 -4.2,5.4 -7.6,5.4 H 352 c -13.3,0 -24,10.7 -24,24 z"
     id="path4" />
</svg>
