<?xml version="1.0" encoding="UTF-8" standalone="no"?>
<svg
   xmlns:dc="http://purl.org/dc/elements/1.1/"
   xmlns:cc="http://creativecommons.org/ns#"
   xmlns:rdf="http://www.w3.org/1999/02/22-rdf-syntax-ns#"
   xmlns:svg="http://www.w3.org/2000/svg"
   xmlns="http://www.w3.org/2000/svg"
   xmlns:sodipodi="http://sodipodi.sourceforge.net/DTD/sodipodi-0.dtd"
   xmlns:inkscape="http://www.inkscape.org/namespaces/inkscape"
   viewBox="0 0 576 512"
   version="1.1"
   id="svg6"
   sodipodi:docname="ship-mirrored.svg"
   inkscape:version="1.0.2-2 (e86c870879, 2021-01-15)">
  <metadata
     id="metadata12">
    <rdf:RDF>
      <cc:Work
         rdf:about="">
        <dc:format>image/svg+xml</dc:format>
        <dc:type
           rdf:resource="http://purl.org/dc/dcmitype/StillImage" />
      </cc:Work>
    </rdf:RDF>
  </metadata>
  <defs
     id="defs10" />
  <sodipodi:namedview
     pagecolor="#ffffff"
     bordercolor="#666666"
     borderopacity="1"
     objecttolerance="10"
     gridtolerance="10"
     guidetolerance="10"
     inkscape:pageopacity="0"
     inkscape:pageshadow="2"
     inkscape:window-width="2400"
     inkscape:window-height="1261"
     id="namedview8"
     showgrid="false"
     inkscape:zoom="1.6015625"
     inkscape:cx="288"
     inkscape:cy="256"
     inkscape:window-x="-9"
     inkscape:window-y="-9"
     inkscape:window-maximized="1"
     inkscape:current-layer="svg6" />
  <!--!Font Awesome Pro 6.5.2 by @fontawesome - https://fontawesome.com License - https://fontawesome.com/license (Commercial License) Copyright 2024 Fonticons, Inc.-->
  <path
     class="fa-secondary"
     opacity="0.4"
     d="m 269.5,90.138252 c 11.1,7.9 25.9,7.9 37,0 22.5,-15.5 50,-26.1 77.5,-26.1 26.9,0 55.3,10.8 77.4,26.1 v 0 c 11.9,8.5 28.1,7.8 39.2,-1.7 14.4,-11.9 32.5,-21 50.6,-25.2 17.2,-4 27.9,-21.2 23.9,-38.4 C 571.1,7.6382515 553.9,-3.0617485 536.7,0.93825151 512.2,6.6382515 491.8,17.438252 478.5,25.938252 449.5,10.338252 417,0.03825151 384,0.03825151 c -31.9,0 -60.6,9.89999999 -80.4,18.90000049 -5.8,2.7 -11.1,5.3 -15.6,7.7 -4.5,-2.4 -9.7,-5.1 -15.6,-7.7 C 252.6,9.9382515 223.9,0.03825151 192,0.03825151 159,0.03825151 126.5,10.338252 97.5,25.838252 84.1,17.438252 63.8,6.5382515 39.3,0.83825151 22.1,-3.1617485 4.9,7.5382515 0.9,24.738252 c -4,17.2 6.7,34.4 23.9,38.4 18.1,4.2 36.2,13.3 50.6,25.2 11.1,9.4 27.3,10.1 39.2,1.7 v 0 c 22.1,-15.2 50.5,-26 77.4,-26 27.5,0 55,10.6 77.5,26.1 z"
     id="path2" />
  <path
     class="fa-primary"
     d="m 224,512.03825 c -17.7,0 -32,-14.3 -32,-32 v -32 h -48 c -26.5,0 -48,-21.5 -48,-48 v -128 l -44.4,-14.8 c -23.1,-7.7 -29.5,-37.5 -11.5,-53.9 l 101,-92.6 c 16.2,-9.4 34.7,-15.099998 50.9,-15.099998 21.1,0 42,8.499998 59.2,20.299998 22.1,15.5 51.6,15.5 73.7,0 18.4,-12.7 39.6,-20.299998 59.2,-20.299998 16.2,0 34.7,5.699998 50.9,15.099998 l 101,92.6 c 18,16.5 11.6,46.2 -11.5,53.9 l -44.5,14.8 v 128 c 0,26.5 -21.5,48 -48,48 h -48 v 32 c 0,17.7 -14.3,32 -32,32 z m 43.8,-182.7 -107.8,-36 v 90.7 h 256 v -90.7 l -107.8,36 c -13.1,4.4 -27.3,4.4 -40.5,0 z"
     id="path4" />
</svg>
