<?xml version="1.0" encoding="UTF-8" standalone="no"?>
<svg
   xmlns:dc="http://purl.org/dc/elements/1.1/"
   xmlns:cc="http://creativecommons.org/ns#"
   xmlns:rdf="http://www.w3.org/1999/02/22-rdf-syntax-ns#"
   xmlns:svg="http://www.w3.org/2000/svg"
   xmlns="http://www.w3.org/2000/svg"
   xmlns:sodipodi="http://sodipodi.sourceforge.net/DTD/sodipodi-0.dtd"
   xmlns:inkscape="http://www.inkscape.org/namespaces/inkscape"
   viewBox="0 0 640 512"
   version="1.1"
   id="svg6"
   sodipodi:docname="tractor-mirrored.svg"
   inkscape:version="1.0.2-2 (e86c870879, 2021-01-15)">
  <metadata
     id="metadata12">
    <rdf:RDF>
      <cc:Work
         rdf:about="">
        <dc:format>image/svg+xml</dc:format>
        <dc:type
           rdf:resource="http://purl.org/dc/dcmitype/StillImage" />
      </cc:Work>
    </rdf:RDF>
  </metadata>
  <defs
     id="defs10" />
  <sodipodi:namedview
     pagecolor="#ffffff"
     bordercolor="#666666"
     borderopacity="1"
     objecttolerance="10"
     gridtolerance="10"
     guidetolerance="10"
     inkscape:pageopacity="0"
     inkscape:pageshadow="2"
     inkscape:window-width="2400"
     inkscape:window-height="1261"
     id="namedview8"
     showgrid="false"
     inkscape:zoom="1.6015625"
     inkscape:cx="320"
     inkscape:cy="256"
     inkscape:window-x="-9"
     inkscape:window-y="-9"
     inkscape:window-maximized="1"
     inkscape:current-layer="svg6" />
  <!--!Font Awesome Pro 6.5.2 by @fontawesome - https://fontawesome.com License - https://fontawesome.com/license (Commercial License) Copyright 2024 Fonticons, Inc.-->
  <path
     class="fa-secondary"
     opacity="0.4"
     d="m 128,320 c 0,17.7 14.3,32 32,32 h 32 c 17.7,0 32,-14.3 32,-32 v -8.2 c 4.8,-1.7 9.5,-3.7 14.1,-5.8 l 5.8,5.8 c 12.5,12.5 32.8,12.5 45.3,0 l 22.6,-22.6 c 12.5,-12.5 12.5,-32.8 0,-45.3 l -5.8,-5.8 c 2.2,-4.6 4.1,-9.3 5.8,-14.1 h 8.2 c 17.7,0 32,-14.3 32,-32 v -32 c 0,-17.7 -14.3,-32 -32,-32 h -8.2 c -1.7,-4.8 -3.7,-9.5 -5.8,-14.1 l 5.8,-5.8 c 12.5,-12.5 12.5,-32.8 0,-45.3 L 289.2,40.2 c -12.5,-12.5 -32.8,-12.5 -45.3,0 L 238.1,46 C 233.5,43.8 228.8,41.9 224,40.2 V 32 C 224,14.3 209.7,0 192,0 h -32 c -17.7,0 -32,14.3 -32,32 v 8.2 c -4.8,1.7 -9.5,3.7 -14.1,5.8 l -5.8,-5.8 C 95.6,27.7 75.3,27.7 62.8,40.2 L 40.2,62.9 c -12.5,12.5 -12.5,32.8 0,45.3 L 46,114 c -2.2,4.6 -4.1,9.3 -5.8,14.1 H 32 c -17.7,0 -32,14.3 -32,32 V 192 c 0,17.7 14.3,32 32,32 h 8.2 c 1.7,4.8 3.7,9.5 5.8,14.1 l -5.8,5.8 c -12.5,12.5 -12.5,32.8 0,45.3 l 22.6,22.6 c 12.5,12.5 32.8,12.5 45.3,0 l 5.8,-5.8 c 4.6,2.2 9.3,4.1 14.1,5.8 V 320 Z M 256,176 a 80,-80 0 1 1 -160,0 80,-80 0 1 1 160,0 z M 552,88 a 24,-24 0 1 1 -48,0 24,-24 0 1 1 48,0 z m -112,0 a 88,-88 0 1 0 176,0 88,-88 0 1 0 -176,0 z"
     id="path2" />
  <path
     class="fa-primary"
     d="m 160,512 c -35.3,0 -64,-28.7 -64,-64 v -96 -32 -0.6 c 4.4,-1.5 8.6,-4.1 12.1,-7.6 l 5.8,-5.8 c 4.6,2.2 9.3,4.1 14.1,5.8 v 8.2 c 0,17.7 14.3,32 32,32 v 96 h 106.3 l 38.4,-96 H 192 c 17.7,0 32,-14.3 32,-32 v -8.2 c 4.8,-1.7 9.5,-3.7 14.1,-5.8 l 5.8,5.8 c 12.5,12.5 32.8,12.5 45.3,0 l 22.6,-22.6 c 12.5,-12.5 12.5,-32.8 0,-45.3 l -5.8,-5.8 c 2.2,-4.6 4.1,-9.3 5.8,-14.1 h 8.2 c 17.7,0 32,-14.3 32,-32 v -32 h 80 c 21.9,29.1 56.7,48 96,48 16.3,0 31.9,-3.3 46.1,-9.2 l 43.3,27.1 c 14,8.8 22.6,24.2 22.6,40.7 V 312 c 0,22.1 -17.9,40 -40,40 h -56 v 33.8 c 0,14.9 3.5,29.6 10.1,42.9 l 2.5,5 c 7.9,15.8 1.5,35 -14.3,42.9 -15.8,7.9 -35,1.5 -42.9,-14.3 l -2.5,-5 C 485.8,435.1 480,410.6 480,385.8 V 352 H 373.7 L 325.8,471.8 C 316,496.1 292.5,512 266.3,512 Z"
     id="path4" />
</svg>
