<?xml version="1.0" encoding="UTF-8" standalone="no"?>
<svg
   xmlns:dc="http://purl.org/dc/elements/1.1/"
   xmlns:cc="http://creativecommons.org/ns#"
   xmlns:rdf="http://www.w3.org/1999/02/22-rdf-syntax-ns#"
   xmlns:svg="http://www.w3.org/2000/svg"
   xmlns="http://www.w3.org/2000/svg"
   xmlns:sodipodi="http://sodipodi.sourceforge.net/DTD/sodipodi-0.dtd"
   xmlns:inkscape="http://www.inkscape.org/namespaces/inkscape"
   viewBox="0 0 448 512"
   version="1.1"
   id="svg6"
   sodipodi:docname="tram-mirrored.svg"
   inkscape:version="1.0.2-2 (e86c870879, 2021-01-15)">
  <metadata
     id="metadata12">
    <rdf:RDF>
      <cc:Work
         rdf:about="">
        <dc:format>image/svg+xml</dc:format>
        <dc:type
           rdf:resource="http://purl.org/dc/dcmitype/StillImage" />
      </cc:Work>
    </rdf:RDF>
  </metadata>
  <defs
     id="defs10" />
  <sodipodi:namedview
     pagecolor="#ffffff"
     bordercolor="#666666"
     borderopacity="1"
     objecttolerance="10"
     gridtolerance="10"
     guidetolerance="10"
     inkscape:pageopacity="0"
     inkscape:pageshadow="2"
     inkscape:window-width="2400"
     inkscape:window-height="1261"
     id="namedview8"
     showgrid="false"
     inkscape:zoom="1.6015625"
     inkscape:cx="224"
     inkscape:cy="256"
     inkscape:window-x="-9"
     inkscape:window-y="-9"
     inkscape:window-maximized="1"
     inkscape:current-layer="svg6" />
  <!--!Font Awesome Pro 6.5.2 by @fontawesome - https://fontawesome.com License - https://fontawesome.com/license (Commercial License) Copyright 2024 Fonticons, Inc.-->
  <path
     class="fa-secondary"
     opacity="0.4"
     d="M 86.8,464 C 74.6,464 63.2,458.5 55.6,449 L 42.7,433 C 34.5,422.7 19.4,421 9,429.3 -1.4,437.6 -3,452.6 5.3,463 L 18,479 c 16.7,20.8 42,33 68.8,33 h 274.4 c 26.7,0 52,-12.2 68.7,-33 l 12.8,-16 c 8.3,-10.4 6.6,-25.5 -3.8,-33.7 -10.4,-8.2 -25.5,-6.6 -33.7,3.7 l -12.7,16 c -7.6,9.5 -19.1,15 -31.2,15 H 248 v -48 h -48 v 48 z M 35.1,19.1 100.6,84.6 C 116.9,71.7 137.6,64 160,64 L 105.4,9.4 C 99.4,3.4 91.3,0 82.8,0 H 43 C 33,0 28,12.1 35.1,19.1 Z M 342.6,9.4 288,64 c 22.4,0 43.1,7.7 59.4,20.6 L 412.9,19.1 C 420,12 415,0 405,0 h -39.7 c -8.5,0 -16.6,3.4 -22.6,9.4 z M 160,352 h 128 c 17.7,0 32,-14.3 32,-32 v -32 c 0,-17.7 -14.3,-32 -32,-32 H 160 c -17.7,0 -32,14.3 -32,32 v 32 c 0,17.7 14.3,32 32,32 z"
     id="path2" />
  <path
     class="fa-primary"
     d="M 160,416 C 107,416 64,373 64,320 V 160 c 0,-53 43,-96 96,-96 h 128 c 53,0 96,43 96,96 v 160 c 0,53 -43,96 -96,96 z m 0,-64 h 128 c 17.7,0 32,-14.3 32,-32 v -32 c 0,-17.7 -14.3,-32 -32,-32 H 160 c -17.7,0 -32,14.3 -32,32 v 32 c 0,17.7 14.3,32 32,32 z M 128,160 a 32,-32 0 1 0 64,0 32,-32 0 1 0 -64,0 z m 160,32 a 32,-32 0 1 0 0,-64 32,-32 0 1 0 0,64 z"
     id="path4" />
</svg>
