<?xml version="1.0" encoding="UTF-8" standalone="no"?>
<svg
   xmlns:dc="http://purl.org/dc/elements/1.1/"
   xmlns:cc="http://creativecommons.org/ns#"
   xmlns:rdf="http://www.w3.org/1999/02/22-rdf-syntax-ns#"
   xmlns:svg="http://www.w3.org/2000/svg"
   xmlns="http://www.w3.org/2000/svg"
   xmlns:sodipodi="http://sodipodi.sourceforge.net/DTD/sodipodi-0.dtd"
   xmlns:inkscape="http://www.inkscape.org/namespaces/inkscape"
   viewBox="0 0 640 512"
   version="1.1"
   id="svg6"
   sodipodi:docname="truck-mirrored.svg"
   inkscape:version="1.0.2-2 (e86c870879, 2021-01-15)">
  <metadata
     id="metadata12">
    <rdf:RDF>
      <cc:Work
         rdf:about="">
        <dc:format>image/svg+xml</dc:format>
        <dc:type
           rdf:resource="http://purl.org/dc/dcmitype/StillImage" />
      </cc:Work>
    </rdf:RDF>
  </metadata>
  <defs
     id="defs10" />
  <sodipodi:namedview
     pagecolor="#ffffff"
     bordercolor="#666666"
     borderopacity="1"
     objecttolerance="10"
     gridtolerance="10"
     guidetolerance="10"
     inkscape:pageopacity="0"
     inkscape:pageshadow="2"
     inkscape:window-width="2400"
     inkscape:window-height="1261"
     id="namedview8"
     showgrid="false"
     inkscape:zoom="1.6015625"
     inkscape:cx="320"
     inkscape:cy="256"
     inkscape:window-x="-9"
     inkscape:window-y="-9"
     inkscape:window-maximized="1"
     inkscape:current-layer="svg6" />
  <!--!Font Awesome Pro 6.5.2 by @fontawesome - https://fontawesome.com License - https://fontawesome.com/license (Commercial License) Copyright 2024 Fonticons, Inc.-->
  <path
     class="fa-secondary"
     opacity="0.4"
     d="M 48,480 C 21.5,480 0,458.5 0,432 V 288 c 0,-26.5 21.5,-48 48,-48 h 304 c 26.5,0 48,21.5 48,48 v 144 c 0,26.5 -21.5,48 -48,48 z m 32,-40 c 8.8,0 16,-7.2 16,-16 V 296 c 0,-8.8 -7.2,-16 -16,-16 -8.8,0 -16,7.2 -16,16 v 128 c 0,8.8 7.2,16 16,16 z m 144,-16 c 0,8.8 7.2,16 16,16 8.8,0 16,-7.2 16,-16 V 296 c 0,-8.8 -7.2,-16 -16,-16 -8.8,0 -16,7.2 -16,16 z m -64,16 c 8.8,0 16,-7.2 16,-16 V 296 c 0,-8.8 -7.2,-16 -16,-16 -8.8,0 -16,7.2 -16,16 v 128 c 0,8.8 7.2,16 16,16 z m 144,-16 c 0,8.8 7.2,16 16,16 8.8,0 16,-7.2 16,-16 V 296 c 0,-8.8 -7.2,-16 -16,-16 -8.8,0 -16,7.2 -16,16 z M 32,96 a 64,-64 0 1 1 128,0 64,-64 0 1 1 -128,0 z m 160,0 a 64,-64 0 1 1 128,0 64,-64 0 1 1 -128,0 z m 288,0 a 64,-64 0 1 1 128,0 64,-64 0 1 1 -128,0 z"
     id="path2" />
  <path
     class="fa-primary"
     d="m 456,368 c -13.3,0 -24,-10.7 -24,-24 V 256 224 208 H 32 C 14.3,208 0,193.7 0,176 v -16 c 0,-8.8 3.6,-16.8 9.4,-22.6 15.4,32.3 48.4,54.6 86.6,54.6 33.4,0 62.8,-17 80,-42.9 17.2,25.9 46.6,42.9 80,42.9 41.8,0 77.4,-26.7 90.5,-64 h 85.5 21.5 c 13.2,37.3 48.7,64 90.5,64 38.2,0 71.2,-22.3 86.6,-54.6 5.8,5.8 9.4,13.8 9.4,22.6 v 64 16 10.3 c 0,9.2 -3.2,18.2 -9,25.3 l -58.8,71.8 c -10.6,13 -26.5,20.5 -43.3,20.5 H 456 Z M 585,256 H 480 v 64 h 48.8 c 2.4,0 4.7,-1.1 6.2,-2.9 z"
     id="path4" />
</svg>
