<?xml version="1.0" encoding="UTF-8" standalone="no"?>
<svg
   xmlns:dc="http://purl.org/dc/elements/1.1/"
   xmlns:cc="http://creativecommons.org/ns#"
   xmlns:rdf="http://www.w3.org/1999/02/22-rdf-syntax-ns#"
   xmlns:svg="http://www.w3.org/2000/svg"
   xmlns="http://www.w3.org/2000/svg"
   xmlns:sodipodi="http://sodipodi.sourceforge.net/DTD/sodipodi-0.dtd"
   xmlns:inkscape="http://www.inkscape.org/namespaces/inkscape"
   viewBox="0 0 640 512"
   version="1.1"
   id="svg6"
   sodipodi:docname="van-mirrored.svg"
   inkscape:version="1.0.2-2 (e86c870879, 2021-01-15)">
  <metadata
     id="metadata12">
    <rdf:RDF>
      <cc:Work
         rdf:about="">
        <dc:format>image/svg+xml</dc:format>
        <dc:type
           rdf:resource="http://purl.org/dc/dcmitype/StillImage" />
      </cc:Work>
    </rdf:RDF>
  </metadata>
  <defs
     id="defs10" />
  <sodipodi:namedview
     pagecolor="#ffffff"
     bordercolor="#666666"
     borderopacity="1"
     objecttolerance="10"
     gridtolerance="10"
     guidetolerance="10"
     inkscape:pageopacity="0"
     inkscape:pageshadow="2"
     inkscape:window-width="2400"
     inkscape:window-height="1261"
     id="namedview8"
     showgrid="false"
     inkscape:zoom="1.6015625"
     inkscape:cx="320"
     inkscape:cy="256"
     inkscape:window-x="-9"
     inkscape:window-y="-9"
     inkscape:window-maximized="1"
     inkscape:current-layer="svg6" />
  <!--!Font Awesome Pro 6.5.2 by @fontawesome - https://fontawesome.com License - https://fontawesome.com/license (Commercial License) Copyright 2024 Fonticons, Inc.-->
  <path
     class="fa-secondary"
     opacity="0.4"
     d="m 160,32 a 80,-80 0 1 1 0,160 80,-80 0 1 1 0,-160 z m 320,0 a 80,-80 0 1 1 0,160 80,-80 0 1 1 0,-160 z"
     id="path2" />
  <path
     class="fa-primary"
     d="m 64,408 c 0,4.4 3.6,8 8,8 h 88 V 320 H 64 Z M 546,320 H 384 v 96 h 81.1 z m -226,0 h -96 v 96 h 96 z M 72,480 C 32.2,480 0,447.8 0,408 V 176 c 0,-26.5 21.5,-48 48,-48 h 1.1 c 7.8,54.3 54.4,96 110.9,96 56.5,0 103.1,-41.7 110.9,-96 h 98.3 c 7.8,54.3 54.4,96 110.9,96 56.5,0 103.1,-41.7 110.9,-96 h 1 c 26.5,0 48,21.5 48,48 v 108.3 c 0,15.1 -5.3,29.7 -15,41.2 L 514.1,457.2 C 501.9,471.7 484,480 465.1,480 H 352 192 Z"
     id="path4" />
</svg>
